<svg width="86" height="86" viewBox="0 0 86 86" fill="none" xmlns="http://www.w3.org/2000/svg">
<path d="M24.333 24.332C20.4752 24.332 17.333 27.4742 17.333 31.332V54.6654C17.333 58.5232 20.4752 61.6654 24.333 61.6654H61.6663C65.5242 61.6654 68.6663 58.5232 68.6663 54.6654V31.332C68.6663 27.4742 65.5242 24.332 61.6663 24.332H24.333ZM24.333 26.6654H61.6663C64.2719 26.6654 66.333 28.7265 66.333 31.332V54.6654C66.333 57.2709 64.2719 59.332 61.6663 59.332H24.333C21.7275 59.332 19.6663 57.2709 19.6663 54.6654V31.332C19.6663 28.7265 21.7275 26.6654 24.333 26.6654Z" fill="#0039A9"/>
<path d="M25.5337 31.3325C25.3748 31.3279 25.2166 31.3559 25.0689 31.4147C24.9211 31.4735 24.787 31.5618 24.6747 31.6743C24.4559 31.8931 24.333 32.1898 24.333 32.4992C24.333 32.8086 24.4559 33.1053 24.6747 33.3241L38.6746 47.3241C41.0535 49.7029 44.9456 49.7029 47.3244 47.3241L61.3244 33.3241C61.5432 33.1053 61.6661 32.8086 61.6661 32.4992C61.6661 32.1898 61.5432 31.8931 61.3244 31.6743C61.1056 31.4556 60.8089 31.3327 60.4995 31.3327C60.1902 31.3327 59.8934 31.4556 59.6746 31.6743L45.6747 45.6743C44.1875 47.1615 41.8116 47.1615 40.3244 45.6743L26.3244 31.6743C26.1141 31.4637 25.8313 31.3414 25.5337 31.3325H25.5337Z" fill="#0039A9"/>
<circle cx="43" cy="43" r="42" stroke="#0039A9" stroke-width="2"/>
</svg>
