<svg width="24" height="24" viewBox="0 0 24 24" fill="none" xmlns="http://www.w3.org/2000/svg">
<rect x="1" y="1" width="22" height="22" rx="3" stroke="#0039A9" stroke-width="2"/>
<path d="M11.4898 11.7409C9.48871 11.7409 7.82554 10.0791 7.82554 8.11281C7.82554 6.07847 9.48871 4.41602 11.4905 4.41602C13.5602 4.41602 15.1547 6.07777 15.1547 8.11281C15.1511 9.0783 14.7643 10.0029 14.0794 10.6833C13.3944 11.3638 12.4673 11.7444 11.5018 11.7416L11.4898 11.7409ZM11.4898 6.55306C10.6426 6.55306 9.998 7.26493 9.998 8.11352C9.998 8.96068 10.6426 9.60527 11.4905 9.60527C12.3723 9.60527 12.9829 8.96068 12.9829 8.11352C12.9836 7.26422 12.3723 6.55306 11.4898 6.55306ZM12.9489 14.7598L15.0194 16.7608C15.4267 17.2007 15.4267 17.8453 15.0194 18.2526C14.5788 18.6925 13.8995 18.6925 13.5602 18.2526L11.4905 16.2176L9.48871 18.2526C9.28542 18.4559 9.01342 18.5572 8.70742 18.5572C8.47012 18.5572 8.19883 18.4552 7.96083 18.2526C7.55354 17.8453 7.55354 17.2007 7.96083 16.7601L10.0646 14.7591C9.30485 14.5341 8.57605 14.2155 7.89496 13.8106C7.38567 13.5393 7.28438 12.8615 7.55567 12.3522C7.89496 11.8436 8.50554 11.7083 9.04883 12.0476C9.78451 12.4966 10.6297 12.7341 11.4915 12.7341C12.3534 12.7341 13.1985 12.4966 13.9342 12.0476C14.4775 11.7083 15.1214 11.8436 15.4267 12.3522C15.7327 12.8615 15.596 13.5386 15.1207 13.8106C14.4768 14.2179 13.7302 14.5232 12.9496 14.7605L12.9489 14.7598Z" fill="#0039A9"/>
</svg>
