<svg width="24" height="24" viewBox="0 0 24 24" fill="none" xmlns="http://www.w3.org/2000/svg">
<path d="M18 8.33758C17.5584 8.52958 17.0844 8.66158 16.5864 8.71918C17.0952 8.41918 17.484 7.94398 17.6688 7.37878C17.184 7.66134 16.6549 7.86013 16.104 7.96678C15.8722 7.72387 15.5934 7.53071 15.2846 7.39909C14.9757 7.26746 14.6433 7.20012 14.3076 7.20118C12.948 7.20118 11.8464 8.28718 11.8464 9.62518C11.8464 9.81478 11.868 9.99958 11.91 10.1772C10.9348 10.1309 9.97994 9.8818 9.10638 9.44584C8.23281 9.00988 7.45971 8.39662 6.8364 7.64518C6.61748 8.01371 6.50221 8.43454 6.5028 8.86318C6.5028 9.70318 6.9384 10.4472 7.5984 10.8804C7.20773 10.8681 6.82543 10.7641 6.4824 10.5768V10.6068C6.48611 11.1701 6.68496 11.7148 7.0451 12.148C7.40524 12.5812 7.9044 12.8762 8.4576 12.9828C8.09443 13.0788 7.71443 13.0928 7.3452 13.0236C7.50615 13.5082 7.81401 13.9307 8.22603 14.2324C8.63805 14.5341 9.13378 14.7001 9.6444 14.7072C8.76835 15.3823 7.69277 15.747 6.5868 15.744C6.3888 15.744 6.1932 15.732 6 15.7104C7.12857 16.4247 8.43715 16.8031 9.7728 16.8012C14.3016 16.8012 16.7772 13.1076 16.7772 9.90358L16.7688 9.58918C17.2516 9.24992 17.6687 8.82585 18 8.33758Z" fill="#0039A9"/>
<path d="M4.8 2.4C4.16348 2.4 3.55303 2.65286 3.10294 3.10294C2.65286 3.55303 2.4 4.16348 2.4 4.8V19.2C2.4 19.8365 2.65286 20.447 3.10294 20.8971C3.55303 21.3471 4.16348 21.6 4.8 21.6H19.2C19.8365 21.6 20.447 21.3471 20.8971 20.8971C21.3471 20.447 21.6 19.8365 21.6 19.2V4.8C21.6 4.16348 21.3471 3.55303 20.8971 3.10294C20.447 2.65286 19.8365 2.4 19.2 2.4H4.8ZM4.8 0H19.2C20.473 0 21.6939 0.505713 22.5941 1.40589C23.4943 2.30606 24 3.52696 24 4.8V19.2C24 20.473 23.4943 21.6939 22.5941 22.5941C21.6939 23.4943 20.473 24 19.2 24H4.8C3.52696 24 2.30606 23.4943 1.40589 22.5941C0.505713 21.6939 0 20.473 0 19.2V4.8C0 3.52696 0.505713 2.30606 1.40589 1.40589C2.30606 0.505713 3.52696 0 4.8 0Z" fill="#0039A9"/>
</svg>
