<svg width="24" height="24" viewBox="0 0 24 24" fill="none" xmlns="http://www.w3.org/2000/svg">
<rect x="1" y="1" width="22" height="22" rx="3" stroke="#0039A9" stroke-width="2"/>
<path d="M19.0005 12C19.0005 15.866 15.8665 19 12.0005 19C8.13449 19 5.00049 15.866 5.00049 12C5.00049 8.13401 8.13449 5 12.0005 5C15.8665 5 19.0005 8.13401 19.0005 12Z" stroke="#0039A9" stroke-width="2"/>
<path fill-rule="evenodd" clip-rule="evenodd" d="M15.489 13.1883C15.2943 13.091 14.3408 12.6242 14.1626 12.5597C13.9852 12.4951 13.8563 12.4632 13.7265 12.6561C13.5967 12.849 13.2247 13.2839 13.1114 13.413C12.998 13.5422 12.8847 13.5577 12.6909 13.4613C12.4971 13.3648 11.8715 13.1607 11.13 12.5028C10.5529 11.9905 10.1635 11.3584 10.0502 11.1647C9.93686 10.9709 10.0381 10.8667 10.1359 10.7703C10.2232 10.6842 10.3297 10.5447 10.4266 10.4318C10.5235 10.319 10.5555 10.239 10.6204 10.1098C10.6853 9.98062 10.6533 9.86781 10.6039 9.77137C10.5555 9.67406 10.167 8.72339 10.0052 8.33675C9.8486 7.96216 9.68854 8.01211 9.56914 8.00694C9.44548 8.00191 9.32172 7.99961 9.19796 8.00005C9.09954 8.00255 9.00271 8.02526 8.91352 8.06675C8.82434 8.10824 8.74473 8.16762 8.67969 8.24117C8.50145 8.43492 8.00049 8.90164 8.00049 9.85231C8.00049 10.803 8.69613 11.7218 8.79303 11.851C8.88994 11.9801 10.1618 13.9306 12.1086 14.7676C12.5723 14.9665 12.934 15.0853 13.2152 15.1749C13.6798 15.3221 14.1029 15.3006 14.4377 15.2515C14.8107 15.1964 15.5859 14.7848 15.7477 14.3336C15.9095 13.8823 15.9095 13.4957 15.861 13.4148C15.8126 13.3338 15.6819 13.2847 15.489 13.1883Z" fill="#0039A9"/>
</svg>
